<?xml version="1.0" encoding="UTF-8"?>
<!DOCTYPE svg PUBLIC "-//W3C//DTD SVG 1.1//EN" "http://www.w3.org/Graphics/SVG/1.1/DTD/svg11.dtd">
<!-- Creator: CorelDRAW 2019 (64-Bit) -->
<svg xmlns="http://www.w3.org/2000/svg" xml:space="preserve" width="411px" height="65px" version="1.1" style="shape-rendering:geometricPrecision; text-rendering:geometricPrecision; image-rendering:optimizeQuality; fill-rule:evenodd; clip-rule:evenodd"
viewBox="0 0 411 65"
 xmlns:xlink="http://www.w3.org/1999/xlink"
 xmlns:xodm="http://www.corel.com/coreldraw/odm/2003">
 <defs>
  <style type="text/css">
   <![CDATA[
    .fil1 {fill:fuchsia;fill-rule:nonzero}
    .fil0 {fill:white;fill-rule:nonzero}
   ]]>
  </style>
 </defs>
 <g id="Capa_x0020_1">
  <metadata id="CorelCorpID_0Corel-Layer"/>
  <polygon class="fil0" points="101.18,55.92 113.57,33.39 107.18,33.39 101.18,44.63 95.14,33.39 88.75,33.39 101.14,55.92 101.14,55.95 101.18,55.92 101.18,55.95 "/>
  <path id="1" class="fil0" d="M118.47 38.06c-5.08,0.04 -9.13,4.06 -9.09,8.98 0,4.93 4.12,8.91 9.19,8.88 5.04,-0.04 9.09,-4.06 9.06,-8.98 0,-4.92 -4.12,-8.91 -9.16,-8.88zm3.23 12.03c-0.82,0.84 -1.96,1.29 -3.16,1.32 -1.21,0 -2.35,-0.45 -3.2,-1.28 -0.85,-0.83 -1.35,-1.94 -1.35,-3.12 0,-1.18 0.47,-2.25 1.32,-3.12 0.85,-0.83 1.95,-1.28 3.16,-1.28 1.2,0 2.34,0.45 3.19,1.24 0.85,0.84 1.35,1.95 1.35,3.12 0,1.18 -0.46,2.29 -1.31,3.12z"/>
  <polygon id="2" class="fil0" points="141.01,38.06 136.93,38.06 136.93,31.82 131.96,31.82 131.96,38.06 127.84,38.06 127.84,42.92 131.96,42.92 131.96,55.92 136.93,55.92 136.93,42.92 141.01,42.92 "/>
  <path id="3" class="fil0" d="M155.24 38l0 1.97c-1.09,-1.35 -2.98,-1.97 -4.72,-1.97 -5.04,0.03 -9.12,4.05 -9.08,8.97 0.03,4.93 4.15,8.91 9.19,8.88 1.67,0 3.52,-0.56 4.61,-1.94l0 2.01 4.98 0 0 -17.92 -4.98 0zm-1.49 12.02c-0.81,0.84 -1.95,1.29 -3.16,1.32 -1.2,0 -2.34,-0.45 -3.19,-1.28 -0.85,-0.83 -1.35,-1.94 -1.35,-3.12 0,-1.18 0.46,-2.29 1.31,-3.12 0.86,-0.83 1.99,-1.28 3.2,-1.28 1.17,-0.04 2.31,0.41 3.16,1.24 0.89,0.84 1.35,1.95 1.35,3.13 0,1.17 -0.46,2.28 -1.32,3.11z"/>
  <path id="4" class="fil0" d="M173.67 50.55c-0.78,0.55 -1.7,0.86 -2.7,0.86 -1.2,-0.03 -2.34,-0.48 -3.19,-1.32 -0.86,-0.83 -1.32,-1.94 -1.28,-3.12 0,-1.17 0.46,-2.28 1.31,-3.12 0.85,-0.79 1.99,-1.24 3.2,-1.24 0.99,0 1.92,0.31 2.7,0.86l3.3 -3.19c-1.6,-1.35 -3.7,-2.18 -5.97,-2.22 -5.04,-0.03 -9.16,3.96 -9.19,8.88 -0.04,4.92 4.05,8.94 9.09,8.98 2.3,0 4.4,-0.8 6.03,-2.15l-3.3 -3.22z"/>
  <path id="5" class="fil0" d="M183.54 31.76l-4.93 0 0 4.09 4.93 0 0 -4.09zm0.04 6.34l-4.97 0 0 17.82 4.97 0 0 -17.82z"/>
  <path id="6" class="fil0" d="M191.24 33.21l2.59 2.53 4.09 -3.98 -2.59 -2.53 -4.09 3.98zm3.59 4.85c-5.08,0.04 -9.12,4.06 -9.09,8.98 0,4.93 4.12,8.91 9.19,8.88 5.05,-0.04 9.09,-4.06 9.06,-8.98 0,-4.92 -4.12,-8.91 -9.16,-8.88zm3.23 12.03c-0.82,0.84 -1.95,1.29 -3.16,1.32 -1.21,0 -2.34,-0.45 -3.2,-1.28 -0.85,-0.83 -1.34,-1.94 -1.34,-3.12 0,-1.18 0.46,-2.25 1.31,-3.12 0.85,-0.83 1.95,-1.28 3.16,-1.28 1.21,0 2.34,0.45 3.19,1.24 0.86,0.84 1.35,1.95 1.35,3.12 0,1.18 -0.46,2.29 -1.31,3.12z"/>
  <path id="7" class="fil0" d="M215.24 38.13c-1.63,0.14 -2.98,0.46 -4.47,2.19l0 -2.32 -4.97 0 0 17.92 4.97 0 0 -8.81 0.03 0c0,0 0,-0.03 0,-0.03 -0.03,-1.18 0.43,-2.29 1.28,-3.12 0.85,-0.83 1.99,-1.28 3.2,-1.32 1.2,0 2.34,0.45 3.19,1.28 0.85,0.84 1.32,1.94 1.32,3.12 0,0 0,0.04 0,0.07l0.03 0 0 7.7 0 1.11 4.62 0 0 -8.49c0,-0.14 0,-0.28 0,-0.42 0,-6.14 -4.19,-9.29 -9.2,-8.88z"/>
  <polygon class="fil1" points="61.27,12.15 49.4,34.32 37.52,12.15 24.94,12.15 35.35,31.04 33.61,34.32 21.73,12.15 9.15,12.15 33.61,56.49 33.61,56.49 33.61,56.49 33.61,56.49 33.61,56.49 41.5,42.16 49.4,56.49 49.4,56.49 49.4,56.49 49.4,56.49 49.4,56.49 73.85,12.15 "/>
  <path id="1" class="fil1" d="M86.63 56.49l12.58 0 -24.39 -44.34 0 0 0 0 0 0 0 0 -24.45 44.34 12.58 0 3.28 -6.21 17.12 0 3.28 6.21zm-16 -14.53l4.19 -7.78 4.13 7.78 -8.32 0z"/>
 </g>
</svg>
